<svg xmlns="http://www.w3.org/2000/svg" viewBox="0 0 256 256" aria-hidden="true" focusable="false">
  <g fill="none" stroke="#222222" stroke-width="10" stroke-linecap="round" stroke-linejoin="round">
    
  <rect x="24" y="24" width="208" height="208" rx="36" fill="#F5C7C8" stroke="#F1A7AC" stroke-width="6"/>
  <path d="M88 156h80l-10 34H98l-10-34z" fill="#FFD782" />
  <path d="M86 156c-8 0-22-10-18-26c4-16 20-18 28-16c6-12 22-18 34-12c10-6 26-2 32 10c14-2 26 10 22 24c-2 8-8 12-16 20H86z" fill="#FFF1F5"/>
  <path d="M118 120c0 8-8 10-8 16" />
  <path d="M140 120c0 8-8 10-8 16" />
  <path d="M160 120c0 8-8 10-8 16" />

  </g>
</svg>
